<svg xmlns="http://www.w3.org/2000/svg" version="1.1" xmlns:xlink="http://www.w3.org/1999/xlink" xmlns:svgjs="http://svgjs.dev/svgjs" width="1500" height="1500" viewBox="0 0 1500 1500"><rect width="1500" height="1500" fill="#000000"></rect><g transform="matrix(0.6666666666666666,0,0,0.6666666666666666,249.39393939393938,438.5856950067477)"><svg viewBox="0 0 396 247" data-background-color="#d89340" preserveAspectRatio="xMidYMid meet" height="935" width="1500" xmlns="http://www.w3.org/2000/svg" xmlns:xlink="http://www.w3.org/1999/xlink"><g id="tight-bounds" transform="matrix(1,0,0,1,0.2400000000000091,-0.09999999999999432)"><svg viewBox="0 0 395.52 247.2" height="247.2" width="395.52"><g><svg></svg></g><g><svg viewBox="0 0 395.52 247.2" height="247.2" width="395.52"><g transform="matrix(1,0,0,1,75.54432,84.38895394737885)"><svg viewBox="0 0 244.43135999999998 78.42209210524229" height="78.42209210524229" width="244.43135999999998"><g><svg viewBox="0 0 244.43135999999998 78.42209210524229" height="78.42209210524229" width="244.43135999999998"><g><svg viewBox="0 0 244.43135999999998 78.42209210524229" height="78.42209210524229" width="244.43135999999998"><g id="textblocktransform"><svg viewBox="0 0 244.43135999999998 78.42209210524229" height="78.42209210524229" width="244.43135999999998" id="textblock"><g><rect width="244.43135999999998" height="66.17878871397345" fill="none" stroke-width="5.538745477134433" stroke="#ffffff" data-fill-palette-color="none" data-stroke-palette-color="tertiary"></rect><rect width="244.43135999999998" height="22.35931495995245" y="66.17878871397345" fill="#ffffff" data-fill-palette-color="tertiary"></rect></g><g><svg viewBox="0 0 244.43135999999998 65.17878871397345" height="65.17878871397345" width="244.43135999999998"><g transform="matrix(1,0,0,1,14.499333709776002,14.499333709776002)"><svg width="215.432692580448" viewBox="5.75 -35.7 281.03 47.2" height="36.18012129442144" data-palette-color="#524d4b"><path d="M35.85-35L39.45-35 39.45 0 36.05 0 36.05-32.1 35.75-32.1 23.65-8.9 22.1-8.9 8.35-29.35 8.05-29.35 9.15 0 5.75 0 7-35.7 8-35.7 23.75-12.3 24.05-12.3 35.85-35ZM67.85 0L52.45 0 52.45-35 67.7-35 67.7-32.55 58.95-33.7Q56.65-34 55.85-34L55.85-34 55.85-18.75Q56.5-18.75 58.95-18.9L58.95-18.9 67.15-19.4 67.15-17.1 58.95-17.6Q56.5-17.75 55.85-17.75L55.85-17.75 55.85-1Q56.75-1 59-1.3L59-1.3 67.85-2.45 67.85 0ZM81 0L77.6 0 78.85-35.7 79.45-35.7 104.6-5.3 104.9-5.3 103.8-35 107.2-35 105.95 0.7 105.35 0.7 80.2-29.7 79.9-29.7 81 0ZM116.39-1.1L116.39-1.1 116.69-4.1 116.99-4.1Q118.94-2.4 121.39-1.45 123.84-0.5 126.24-0.5L126.24-0.5Q129.64-0.5 131.74-2.38 133.84-4.25 133.84-7.4L133.84-7.4Q133.84-9.15 133.07-10.65 132.29-12.15 130.52-13.7 128.74-15.25 125.64-17.05L125.64-17.05Q123.49-18.3 121.54-19.68 119.59-21.05 118.34-22.88 117.09-24.7 117.09-27.25L117.09-27.25Q117.09-31.05 119.84-33.38 122.59-35.7 127.09-35.7L127.09-35.7Q129.09-35.7 131.39-35.27 133.69-34.85 134.94-34.2L134.94-34.2 134.69-31.4 134.39-31.4Q131.54-34.5 127.09-34.5L127.09-34.5Q123.89-34.5 121.94-32.88 119.99-31.25 119.99-28.5L119.99-28.5Q119.99-26.45 121.07-24.98 122.14-23.5 123.84-22.33 125.54-21.15 127.49-20.05L127.49-20.05Q129.74-18.75 131.87-17.3 133.99-15.85 135.37-13.83 136.74-11.8 136.74-8.75L136.74-8.75Q136.74-5.95 135.44-3.83 134.14-1.7 131.77-0.5 129.39 0.7 126.24 0.7L126.24 0.7Q124.24 0.7 121.54 0.2 118.84-0.3 116.39-1.1ZM145.04 0L141.39 0 154.84-35 157.94-35 171.39 0 167.74 0 161.54-16.4 150.19-16.4 145.04 0ZM155.49-32.4L155.19-32.4 150.54-17.6 161.09-17.6 155.49-32.4ZM179.49-3.1L179.49-3.1 179.49-35 182.89-35 182.89-3.4Q182.89 2.9 181.14 6.4 179.39 9.9 175.79 11.5L175.79 11.5 175.64 11.25Q177.64 9.85 178.56 6.53 179.49 3.2 179.49-3.1ZM211.29 0L195.89 0 195.89-35 211.14-35 211.14-32.55 202.39-33.7Q200.09-34 199.29-34L199.29-34 199.29-18.75Q199.94-18.75 202.39-18.9L202.39-18.9 210.59-19.4 210.59-17.1 202.39-17.6Q199.94-17.75 199.29-17.75L199.29-17.75 199.29-1Q200.19-1 202.44-1.3L202.44-1.3 211.29-2.45 211.29 0ZM221.78 0L221.78-35 228.48-35Q233.78-35 236.71-32.77 239.63-30.55 239.63-26.55L239.63-26.55Q239.63-23.45 237.81-21.4 235.98-19.35 232.53-18.65L232.53-18.65 232.53-18.35Q235.83-17.7 237.93-15.25 240.03-12.8 241.08-9.2L241.08-9.2Q242.03-5.9 242.96-4.08 243.88-2.25 245.01-1.45 246.13-0.65 247.68-0.3L247.68-0.3 247.68 0 245.63 0Q243.43 0 242.01-0.8 240.58-1.6 239.58-3.5 238.58-5.4 237.68-8.75L237.68-8.75Q236.23-13.9 233.83-16.05 231.43-18.2 227.98-18.2L227.98-18.2 227.68-18.2 227.68-19.1 227.98-19.1Q236.03-19.1 236.03-26.5L236.03-26.5Q236.03-33.8 228.48-33.8L228.48-33.8 225.18-33.8 225.18 0 221.78 0ZM250.38-17.5L250.38-17.5Q250.38-21.35 251.76-24.68 253.13-28 255.61-30.48 258.08-32.95 261.41-34.33 264.73-35.7 268.58-35.7L268.58-35.7Q272.43-35.7 275.76-34.33 279.08-32.95 281.56-30.48 284.03-28 285.41-24.68 286.78-21.35 286.78-17.5L286.78-17.5Q286.78-13.65 285.41-10.33 284.03-7 281.56-4.53 279.08-2.05 275.76-0.68 272.43 0.7 268.58 0.7L268.58 0.7Q264.73 0.7 261.41-0.68 258.08-2.05 255.61-4.53 253.13-7 251.76-10.33 250.38-13.65 250.38-17.5ZM254.18-17.5L254.18-17.5Q254.18-12.4 255.98-8.58 257.78-4.75 261.03-2.63 264.28-0.5 268.58-0.5L268.58-0.5Q272.88-0.5 276.13-2.63 279.38-4.75 281.18-8.6 282.98-12.45 282.98-17.5L282.98-17.5Q282.98-22.55 281.18-26.38 279.38-30.2 276.13-32.35 272.88-34.5 268.58-34.5L268.58-34.5Q264.28-34.5 261.06-32.38 257.83-30.25 256.01-26.43 254.18-22.6 254.18-17.5Z" opacity="1" transform="matrix(1,0,0,1,0,0)" fill="#ffffff" class="wordmark-text-0" data-fill-palette-color="primary" id="text-0"></path></svg></g></svg></g><g transform="matrix(1,0,0,1,46.68638976,65.17878871397345)"><svg viewBox="0 0 151.05858048 13.243303391268839" height="13.243303391268839" width="151.05858048"><g transform="matrix(1,0,0,1,19.999999999999993,3.2)"><svg width="111.05858048" viewBox="2.55 -38.55 822.7 50.699999999999996" height="6.8433033912688375" data-palette-color="#d89340"><path d="M28.5-33L27.6-29.3Q26.35-29.7 24.95-30.03 23.55-30.35 21.88-30.58 20.2-30.8 18.35-30.8L18.35-30.8Q15.35-30.8 13.25-29.5 11.15-28.2 9.83-26.18 8.5-24.15 7.9-21.65 7.3-19.15 7.3-16.7L7.3-16.7Q7.3-13.6 8.18-11.08 9.05-8.55 10.58-6.78 12.1-5 14.13-4.05 16.15-3.1 18.4-3.1L18.4-3.1Q20.5-3.1 22.25-3.33 24-3.55 25.25-3.8L25.25-3.8Q26.7-4.1 27.85-4.5L27.85-4.5 28.7-0.95Q27.35-0.5 25.7-0.15L25.7-0.15Q24.3 0.15 22.45 0.4 20.6 0.65 18.4 0.65L18.4 0.65Q14.45 0.65 11.48-0.65 8.5-1.95 6.53-4.28 4.55-6.6 3.55-9.78 2.55-12.95 2.55-16.75L2.55-16.75Q2.55-21.1 3.75-24.43 4.95-27.75 7.05-30 9.15-32.25 12.05-33.4 14.95-34.55 18.4-34.55L18.4-34.55Q20.5-34.55 22.33-34.33 24.15-34.1 25.68-33.75 27.2-33.4 28.5-33L28.5-33ZM47.95-5.85L47.95-11.55Q46.95-11.5 46.05-11.45 45.15-11.4 44.27-11.33 43.4-11.25 42.7-11.15L42.7-11.15Q39.1-10.7 37.6-9.58 36.1-8.45 36.1-6.35L36.1-6.35Q36.1-4.6 37.17-3.73 38.25-2.85 40-2.85L40-2.85Q42.4-2.85 44.27-3.68 46.15-4.5 47.95-5.85L47.95-5.85ZM48.4 0.4L47.9-2.35Q45.55-1 43.52-0.18 41.5 0.65 39.15 0.65L39.15 0.65Q35.8 0.65 33.82-0.98 31.85-2.6 31.85-6.35L31.85-6.35Q31.85-8.3 32.85-9.75 33.85-11.2 35.47-12.18 37.1-13.15 39.15-13.7 41.2-14.25 43.35-14.4L43.35-14.4Q44.25-14.5 45.7-14.58 47.15-14.65 47.95-14.7L47.95-14.7Q47.95-16.45 47.85-17.82 47.75-19.2 47.25-20.18 46.75-21.15 45.77-21.65 44.8-22.15 43-22.15L43-22.15Q41.55-22.15 40.2-21.98 38.85-21.8 37.8-21.6L37.8-21.6Q36.55-21.35 35.5-21.05L35.5-21.05 34.7-24.5Q35.95-24.8 37.4-25.05L37.4-25.05Q38.65-25.3 40.3-25.48 41.95-25.65 43.85-25.65L43.85-25.65Q46.4-25.65 47.97-24.9 49.55-24.15 50.42-22.88 51.3-21.6 51.62-19.98 51.95-18.35 51.95-16.55L51.95-16.55 51.95-4.55Q51.95-3.85 51.97-3.08 52-2.3 52.07-1.55 52.15-0.8 52.25 0L52.25 0 48.4 0.4ZM59.05 0L59.05-20.6Q59.05-22.3 58.75-24.7L58.75-24.7 62.5-25.2 63.05-22.05Q64.4-23.05 65.7-23.8 67-24.55 68.5-25.1 70-25.65 71.55-25.65L71.55-25.65Q74.05-25.65 75.5-24.78 76.95-23.9 77.65-21.8L77.65-21.8Q79.7-23.25 81.92-24.45 84.15-25.65 86.55-25.65L86.55-25.65Q88.4-25.65 89.7-25.18 91-24.7 91.8-23.6 92.59-22.5 92.95-20.7 93.3-18.9 93.3-16.2L93.3-16.2 93.3 0 89.3 0 89.3-15.75Q89.3-17.25 89.25-18.43 89.2-19.6 88.9-20.43 88.59-21.25 87.92-21.7 87.25-22.15 86-22.15L86-22.15Q84.84-22.15 83.82-21.83 82.8-21.5 81.7-20.9 80.59-20.3 78.3-18.45L78.3-18.45 78.3 0 74.3 0 74.3-15.75Q74.3-17.25 74.25-18.43 74.2-19.6 73.9-20.43 73.59-21.25 72.92-21.7 72.25-22.15 71-22.15L71-22.15Q69.7-22.15 68.3-21.6 66.9-21.05 65.65-20.3 64.4-19.55 63.05-18.55L63.05-18.55 63.05 0 59.05 0ZM100.34 0L100.34-25.2 104.34-25.65 104.34 0 100.34 0ZM99.69-32.35L99.69-32.35Q99.69-33.5 100.47-34.27 101.24-35.05 102.39-35.05L102.39-35.05Q103.59-35.05 104.42-34.27 105.24-33.5 105.24-32.35L105.24-32.35Q105.24-31.2 104.42-30.43 103.59-29.65 102.39-29.65L102.39-29.65Q101.24-29.65 100.47-30.43 99.69-31.2 99.69-32.35ZM111.59 0L111.59-20.15Q111.64-21.2 111.34-24.7L111.34-24.7 115.04-25.2 115.59-22Q117.09-23 118.57-23.75 120.04-24.5 121.59-25.08 123.14-25.65 124.59-25.65L124.59-25.65Q126.64-25.65 128.02-25.18 129.39-24.7 130.24-23.6 131.09-22.5 131.47-20.7 131.84-18.9 131.84-16.2L131.84-16.2 131.84 0 127.84 0 127.84-15.75Q127.84-17.25 127.79-18.43 127.74-19.6 127.37-20.43 126.99-21.25 126.22-21.7 125.44-22.15 124.04-22.15L124.04-22.15Q122.74-22.15 121.29-21.58 119.84-21 118.44-20.25 117.04-19.5 115.59-18.5L115.59-18.5 115.59 0 111.59 0ZM141.74-12.45L141.74-12.45Q141.74-7.6 143.91-5.23 146.09-2.85 149.79-2.85L149.79-2.85Q153.44-2.85 155.49-5.2 157.54-7.55 157.54-12.25L157.54-12.25Q157.54-17.25 155.36-19.7 153.19-22.15 149.44-22.15L149.44-22.15Q145.69-22.15 143.71-19.73 141.74-17.3 141.74-12.45ZM137.49-12.5L137.49-12.5Q137.49-16.3 138.69-18.82 139.89-21.35 141.74-22.88 143.59-24.4 145.71-25.03 147.84-25.65 149.74-25.65L149.74-25.65Q151.54-25.65 153.66-25.08 155.79-24.5 157.59-23.03 159.39-21.55 160.59-19.07 161.79-16.6 161.79-12.8L161.79-12.8Q161.79-8.85 160.56-6.25 159.34-3.65 157.49-2.13 155.64-0.6 153.49 0.03 151.34 0.65 149.49 0.65L149.49 0.65Q147.59 0.65 145.49 0.05 143.39-0.55 141.61-2.02 139.84-3.5 138.66-6.05 137.49-8.6 137.49-12.5ZM194.73-5.5L194.73-21.4Q192.93-21.9 191.93-22.03 190.93-22.15 189.88-22.15L189.88-22.15Q187.78-22.15 186.28-21.4 184.78-20.65 183.81-19.33 182.83-18 182.38-16.28 181.93-14.55 181.93-12.6L181.93-12.6Q181.93-10.85 182.31-9.1 182.68-7.35 183.48-5.95 184.28-4.55 185.43-3.7 186.58-2.85 188.18-2.85L188.18-2.85Q189.28-2.85 190.46-3.25 191.63-3.65 192.63-4.17 193.63-4.7 194.73-5.5L194.73-5.5ZM195.18 0.4L194.78-2Q193.63-1.2 192.56-0.68 191.48-0.15 190.21 0.25 188.93 0.65 187.73 0.65L187.73 0.65Q183.03 0.65 180.36-2.68 177.68-6 177.68-12.4L177.68-12.4Q177.68-16.2 178.91-18.75 180.13-21.3 181.98-22.83 183.83-24.35 185.96-25 188.08-25.65 189.88-25.65L189.88-25.65Q190.78-25.65 191.78-25.53 192.78-25.4 194.73-24.9L194.73-24.9 194.73-37.45 198.73-37.9 198.73-4.55Q198.73-3.85 198.76-3.08 198.78-2.3 198.86-1.55 198.93-0.8 199.03 0L199.03 0 195.18 0.4ZM205.98 0L205.98-25.2 209.98-25.65 209.98 0 205.98 0ZM205.33-32.35L205.33-32.35Q205.33-33.5 206.1-34.27 206.88-35.05 208.03-35.05L208.03-35.05Q209.23-35.05 210.06-34.27 210.88-33.5 210.88-32.35L210.88-32.35Q210.88-31.2 210.06-30.43 209.23-29.65 208.03-29.65L208.03-29.65Q206.88-29.65 206.1-30.43 205.33-31.2 205.33-32.35ZM217.23 0L217.23-21.1Q217.23-22.25 216.98-24.7L216.98-24.7 220.68-25.2 221.08-21.55 221.13-21.55Q222.03-22.7 222.88-23.55 223.73-24.4 224.65-25.03 225.58-25.65 226.43-25.65L226.43-25.65Q227.58-25.7 229.63-25.4L229.63-25.4 228.73-21.55Q227.08-21.85 226.43-21.8L226.43-21.8Q225.58-21.8 224.63-21 223.68-20.2 222.98-19.3L222.98-19.3Q222.08-18.2 221.23-16.8L221.23-16.8 221.23 0 217.23 0ZM251.13-3.95L251.88-0.6Q250.72-0.25 249.5 0 248.27 0.25 246.8 0.45 245.32 0.65 243.72 0.65L243.72 0.65Q241.22 0.65 239.07-0.05 236.92-0.75 235.32-2.3 233.72-3.85 232.8-6.33 231.87-8.8 231.87-12.4L231.87-12.4Q231.87-15.65 232.77-18.13 233.67-20.6 235.25-22.28 236.82-23.95 238.95-24.8 241.07-25.65 243.57-25.65L243.57-25.65Q246.02-25.65 247.82-24.7 249.63-23.75 250.8-22.13 251.97-20.5 252.55-18.32 253.13-16.15 253.13-13.75L253.13-13.75 252.38-11.55 236.22-11.55Q236.22-10 236.62-8.45 237.02-6.9 238-5.65 238.97-4.4 240.55-3.63 242.12-2.85 244.47-2.85L244.47-2.85Q245.97-2.85 247.22-3.03 248.47-3.2 249.4-3.43 250.32-3.65 251.13-3.95L251.13-3.95ZM236.37-14.75L248.97-14.75Q248.97-15.1 248.82-16.3 248.67-17.5 248.12-18.8 247.57-20.1 246.42-21.13 245.27-22.15 243.37-22.15L243.37-22.15Q241.27-22.15 239.92-21.28 238.57-20.4 237.77-19.2 236.97-18 236.67-16.75 236.37-15.5 236.37-14.75L236.37-14.75ZM274.97-24.85L274.17-21.5Q273.32-21.7 271.82-21.93 270.32-22.15 268.77-22.15L268.77-22.15Q266.52-22.15 265.1-21.25 263.67-20.35 262.87-18.93 262.07-17.5 261.77-15.78 261.47-14.05 261.47-12.4L261.47-12.4Q261.47-9.85 262.12-8.03 262.77-6.2 263.85-5.05 264.92-3.9 266.32-3.38 267.72-2.85 269.27-2.85L269.27-2.85Q270.32-2.85 271.3-2.98 272.27-3.1 273.1-3.28 273.92-3.45 274.67-3.7L274.67-3.7 275.47-0.35Q274.42-0.05 273.52 0.15 272.62 0.35 271.4 0.5 270.17 0.65 268.77 0.65L268.77 0.65Q266.02 0.65 263.87-0.05 261.72-0.75 260.25-2.3 258.77-3.85 258-6.35 257.22-8.85 257.22-12.45L257.22-12.45Q257.22-15.95 258.2-18.48 259.17-21 260.77-22.58 262.37-24.15 264.45-24.9 266.52-25.65 268.77-25.65L268.77-25.65Q269.97-25.65 271.1-25.53 272.22-25.4 273.07-25.25L273.07-25.25Q274.07-25.05 274.97-24.85L274.97-24.85ZM282.27-32.15L286.27-32.65 286.27-25.15 293.52-25.15 293.52-21.9 286.27-21.9 286.27-8.55Q286.27-6.9 286.34-5.8 286.42-4.7 286.67-4.05 286.92-3.4 287.37-3.13 287.82-2.85 288.52-2.85L288.52-2.85Q290.42-2.9 292.92-4.25L292.92-4.25 294.12-1.2Q292.47-0.1 291.05 0.28 289.62 0.65 288.22 0.65L288.22 0.65Q284.92 0.65 283.59-1.23 282.27-3.1 282.27-7.45L282.27-7.45 282.27-21.9 277.67-21.9 277.67-25.15 282.27-25.15 282.27-32.15ZM301.27-12.45L301.27-12.45Q301.27-7.6 303.44-5.23 305.62-2.85 309.32-2.85L309.32-2.85Q312.97-2.85 315.02-5.2 317.07-7.55 317.07-12.25L317.07-12.25Q317.07-17.25 314.89-19.7 312.72-22.15 308.97-22.15L308.97-22.15Q305.22-22.15 303.24-19.73 301.27-17.3 301.27-12.45ZM297.02-12.5L297.02-12.5Q297.02-16.3 298.22-18.82 299.42-21.35 301.27-22.88 303.12-24.4 305.24-25.03 307.37-25.65 309.27-25.65L309.27-25.65Q311.07-25.65 313.19-25.08 315.32-24.5 317.12-23.03 318.92-21.55 320.12-19.07 321.32-16.6 321.32-12.8L321.32-12.8Q321.32-8.85 320.09-6.25 318.87-3.65 317.02-2.13 315.17-0.6 313.02 0.03 310.87 0.65 309.02 0.65L309.02 0.65Q307.12 0.65 305.02 0.05 302.92-0.55 301.14-2.02 299.37-3.5 298.19-6.05 297.02-8.6 297.02-12.5ZM352.56-5.85L352.56-11.55Q351.56-11.5 350.66-11.45 349.76-11.4 348.89-11.33 348.01-11.25 347.31-11.15L347.31-11.15Q343.71-10.7 342.21-9.58 340.71-8.45 340.71-6.35L340.71-6.35Q340.71-4.6 341.79-3.73 342.86-2.85 344.61-2.85L344.61-2.85Q347.01-2.85 348.89-3.68 350.76-4.5 352.56-5.85L352.56-5.85ZM353.01 0.4L352.51-2.35Q350.16-1 348.14-0.18 346.11 0.65 343.76 0.65L343.76 0.65Q340.41 0.65 338.44-0.98 336.46-2.6 336.46-6.35L336.46-6.35Q336.46-8.3 337.46-9.75 338.46-11.2 340.09-12.18 341.71-13.15 343.76-13.7 345.81-14.25 347.96-14.4L347.96-14.4Q348.86-14.5 350.31-14.58 351.76-14.65 352.56-14.7L352.56-14.7Q352.56-16.45 352.46-17.82 352.36-19.2 351.86-20.18 351.36-21.15 350.39-21.65 349.41-22.15 347.61-22.15L347.61-22.15Q346.16-22.15 344.81-21.98 343.46-21.8 342.41-21.6L342.41-21.6Q341.16-21.35 340.11-21.05L340.11-21.05 339.31-24.5Q340.56-24.8 342.01-25.05L342.01-25.05Q343.26-25.3 344.91-25.48 346.56-25.65 348.46-25.65L348.46-25.65Q351.01-25.65 352.59-24.9 354.16-24.15 355.04-22.88 355.91-21.6 356.24-19.98 356.56-18.35 356.56-16.55L356.56-16.55 356.56-4.55Q356.56-3.85 356.59-3.08 356.61-2.3 356.69-1.55 356.76-0.8 356.86 0L356.86 0 353.01 0.4ZM375.06 0L375.06-37.45 379.06-37.9 379.06 0 375.06 0ZM400.25-5.85L400.25-11.55Q399.25-11.5 398.35-11.45 397.45-11.4 396.58-11.33 395.7-11.25 395-11.15L395-11.15Q391.4-10.7 389.9-9.58 388.4-8.45 388.4-6.35L388.4-6.35Q388.4-4.6 389.48-3.73 390.55-2.85 392.3-2.85L392.3-2.85Q394.7-2.85 396.58-3.68 398.45-4.5 400.25-5.85L400.25-5.85ZM400.7 0.4L400.2-2.35Q397.85-1 395.83-0.18 393.8 0.65 391.45 0.65L391.45 0.65Q388.1 0.65 386.13-0.98 384.15-2.6 384.15-6.35L384.15-6.35Q384.15-8.3 385.15-9.75 386.15-11.2 387.78-12.18 389.4-13.15 391.45-13.7 393.5-14.25 395.65-14.4L395.65-14.4Q396.55-14.5 398-14.58 399.45-14.65 400.25-14.7L400.25-14.7Q400.25-16.45 400.15-17.82 400.05-19.2 399.55-20.18 399.05-21.15 398.08-21.65 397.1-22.15 395.3-22.15L395.3-22.15Q393.85-22.15 392.5-21.98 391.15-21.8 390.1-21.6L390.1-21.6Q388.85-21.35 387.8-21.05L387.8-21.05 387-24.5Q388.25-24.8 389.7-25.05L389.7-25.05Q390.95-25.3 392.6-25.48 394.25-25.65 396.15-25.65L396.15-25.65Q398.7-25.65 400.28-24.9 401.85-24.15 402.73-22.88 403.6-21.6 403.93-19.98 404.25-18.35 404.25-16.55L404.25-16.55 404.25-4.55Q404.25-3.85 404.28-3.08 404.3-2.3 404.38-1.55 404.45-0.8 404.55 0L404.55 0 400.7 0.4ZM422.75 0L422.75-25.2 426.75-25.65 426.75 0 422.75 0ZM422.1-32.35L422.1-32.35Q422.1-33.5 422.88-34.27 423.65-35.05 424.8-35.05L424.8-35.05Q426-35.05 426.82-34.27 427.65-33.5 427.65-32.35L427.65-32.35Q427.65-31.2 426.82-30.43 426-29.65 424.8-29.65L424.8-29.65Q423.65-29.65 422.88-30.43 422.1-31.2 422.1-32.35ZM434 0L434-20.15Q434.05-21.2 433.75-24.7L433.75-24.7 437.45-25.2 438-22Q439.5-23 440.97-23.75 442.45-24.5 444-25.08 445.55-25.65 447-25.65L447-25.65Q449.05-25.65 450.42-25.18 451.8-24.7 452.65-23.6 453.5-22.5 453.87-20.7 454.25-18.9 454.25-16.2L454.25-16.2 454.25 0 450.25 0 450.25-15.75Q450.25-17.25 450.2-18.43 450.15-19.6 449.77-20.43 449.4-21.25 448.62-21.7 447.85-22.15 446.45-22.15L446.45-22.15Q445.15-22.15 443.7-21.58 442.25-21 440.85-20.25 439.45-19.5 438-18.5L438-18.5 438 0 434 0ZM463.44 0L463.44-21.9 458.8-21.9 458.8-25.15 463.44-25.15Q463.44-28.65 463.92-31.08 464.39-33.5 465.44-35.02 466.5-36.55 468.14-37.23 469.8-37.9 472.14-37.9L472.14-37.9Q474.05-37.9 475.69-37.27 477.34-36.65 478.34-35.75L478.34-35.75 476.59-32.75Q475.59-33.5 474.52-33.95 473.44-34.4 472.19-34.4L472.19-34.4Q470.55-34.4 469.59-33.68 468.64-32.95 468.17-31.7 467.69-30.45 467.57-28.78 467.44-27.1 467.44-25.15L467.44-25.15 473.69-25.15 473.69-21.9 467.44-21.9 467.44 0 463.44 0ZM480.69-12.45L480.69-12.45Q480.69-7.6 482.87-5.23 485.04-2.85 488.74-2.85L488.74-2.85Q492.39-2.85 494.44-5.2 496.49-7.55 496.49-12.25L496.49-12.25Q496.49-17.25 494.32-19.7 492.14-22.15 488.39-22.15L488.39-22.15Q484.64-22.15 482.67-19.73 480.69-17.3 480.69-12.45ZM476.44-12.5L476.44-12.5Q476.44-16.3 477.64-18.82 478.84-21.35 480.69-22.88 482.54-24.4 484.67-25.03 486.79-25.65 488.69-25.65L488.69-25.65Q490.49-25.65 492.62-25.08 494.74-24.5 496.54-23.03 498.34-21.55 499.54-19.07 500.74-16.6 500.74-12.8L500.74-12.8Q500.74-8.85 499.52-6.25 498.29-3.65 496.44-2.13 494.59-0.6 492.44 0.03 490.29 0.65 488.44 0.65L488.44 0.65Q486.54 0.65 484.44 0.05 482.34-0.55 480.57-2.02 478.79-3.5 477.62-6.05 476.44-8.6 476.44-12.5ZM506.59 0L506.59-21.1Q506.59-22.25 506.34-24.7L506.34-24.7 510.04-25.2 510.44-21.55 510.49-21.55Q511.39-22.7 512.24-23.55 513.09-24.4 514.01-25.03 514.94-25.65 515.79-25.65L515.79-25.65Q516.94-25.7 518.99-25.4L518.99-25.4 518.09-21.55Q516.44-21.85 515.79-21.8L515.79-21.8Q514.94-21.8 513.99-21 513.04-20.2 512.34-19.3L512.34-19.3Q511.44-18.2 510.59-16.8L510.59-16.8 510.59 0 506.59 0ZM523.44 0L523.44-20.6Q523.44-22.3 523.14-24.7L523.14-24.7 526.89-25.2 527.44-22.05Q528.79-23.05 530.09-23.8 531.39-24.55 532.89-25.1 534.39-25.65 535.94-25.65L535.94-25.65Q538.44-25.65 539.89-24.78 541.34-23.9 542.04-21.8L542.04-21.8Q544.09-23.25 546.31-24.45 548.54-25.65 550.94-25.65L550.94-25.65Q552.79-25.65 554.09-25.18 555.39-24.7 556.19-23.6 556.99-22.5 557.34-20.7 557.69-18.9 557.69-16.2L557.69-16.2 557.69 0 553.69 0 553.69-15.75Q553.69-17.25 553.64-18.43 553.59-19.6 553.29-20.43 552.99-21.25 552.31-21.7 551.64-22.15 550.39-22.15L550.39-22.15Q549.24-22.15 548.21-21.83 547.19-21.5 546.09-20.9 544.99-20.3 542.69-18.45L542.69-18.45 542.69 0 538.69 0 538.69-15.75Q538.69-17.25 538.64-18.43 538.59-19.6 538.29-20.43 537.99-21.25 537.31-21.7 536.64-22.15 535.39-22.15L535.39-22.15Q534.09-22.15 532.69-21.6 531.29-21.05 530.04-20.3 528.79-19.55 527.44-18.55L527.44-18.55 527.44 0 523.44 0ZM578.73-5.85L578.73-11.55Q577.73-11.5 576.83-11.45 575.93-11.4 575.06-11.33 574.18-11.25 573.48-11.15L573.48-11.15Q569.88-10.7 568.38-9.58 566.88-8.45 566.88-6.35L566.88-6.35Q566.88-4.6 567.96-3.73 569.03-2.85 570.78-2.85L570.78-2.85Q573.18-2.85 575.06-3.68 576.93-4.5 578.73-5.85L578.73-5.85ZM579.18 0.4L578.68-2.35Q576.33-1 574.31-0.18 572.28 0.65 569.93 0.65L569.93 0.65Q566.58 0.65 564.61-0.98 562.63-2.6 562.63-6.35L562.63-6.35Q562.63-8.3 563.63-9.75 564.63-11.2 566.26-12.18 567.88-13.15 569.93-13.7 571.98-14.25 574.13-14.4L574.13-14.4Q575.03-14.5 576.48-14.58 577.93-14.65 578.73-14.7L578.73-14.7Q578.73-16.45 578.63-17.82 578.53-19.2 578.03-20.18 577.53-21.15 576.56-21.65 575.58-22.15 573.78-22.15L573.78-22.15Q572.33-22.15 570.98-21.98 569.63-21.8 568.58-21.6L568.58-21.6Q567.33-21.35 566.28-21.05L566.28-21.05 565.48-24.5Q566.73-24.8 568.18-25.05L568.18-25.05Q569.43-25.3 571.08-25.48 572.73-25.65 574.63-25.65L574.63-25.65Q577.18-25.65 578.76-24.9 580.33-24.15 581.21-22.88 582.08-21.6 582.41-19.98 582.73-18.35 582.73-16.55L582.73-16.55 582.73-4.55Q582.73-3.85 582.76-3.08 582.78-2.3 582.86-1.55 582.93-0.8 583.03 0L583.03 0 579.18 0.4ZM606.18-24.85L605.38-21.5Q604.53-21.7 603.03-21.93 601.53-22.15 599.98-22.15L599.98-22.15Q597.73-22.15 596.31-21.25 594.88-20.35 594.08-18.93 593.28-17.5 592.98-15.78 592.68-14.05 592.68-12.4L592.68-12.4Q592.68-9.85 593.33-8.03 593.98-6.2 595.06-5.05 596.13-3.9 597.53-3.38 598.93-2.85 600.48-2.85L600.48-2.85Q601.53-2.85 602.51-2.98 603.48-3.1 604.31-3.28 605.13-3.45 605.88-3.7L605.88-3.7 606.68-0.35Q605.63-0.05 604.73 0.15 603.83 0.35 602.61 0.5 601.38 0.65 599.98 0.65L599.98 0.65Q597.23 0.65 595.08-0.05 592.93-0.75 591.46-2.3 589.98-3.85 589.21-6.35 588.43-8.85 588.43-12.45L588.43-12.45Q588.43-15.95 589.41-18.48 590.38-21 591.98-22.58 593.58-24.15 595.66-24.9 597.73-25.65 599.98-25.65L599.98-25.65Q601.18-25.65 602.31-25.53 603.43-25.4 604.28-25.25L604.28-25.25Q605.28-25.05 606.18-24.85L606.18-24.85ZM611.63 0L611.63-25.2 615.63-25.65 615.63 0 611.63 0ZM610.98-32.35L610.98-32.35Q610.98-33.5 611.75-34.27 612.53-35.05 613.68-35.05L613.68-35.05Q614.88-35.05 615.7-34.27 616.53-33.5 616.53-32.35L616.53-32.35Q616.53-31.2 615.7-30.43 614.88-29.65 613.68-29.65L613.68-29.65Q612.53-29.65 611.75-30.43 610.98-31.2 610.98-32.35ZM625.68-12.45L625.68-12.45Q625.68-7.6 627.85-5.23 630.03-2.85 633.73-2.85L633.73-2.85Q637.38-2.85 639.43-5.2 641.48-7.55 641.48-12.25L641.48-12.25Q641.48-17.25 639.3-19.7 637.13-22.15 633.38-22.15L633.38-22.15Q629.63-22.15 627.65-19.73 625.68-17.3 625.68-12.45ZM621.43-12.5L621.43-12.5Q621.43-16.3 622.63-18.82 623.83-21.35 625.68-22.88 627.53-24.4 629.65-25.03 631.78-25.65 633.68-25.65L633.68-25.65Q635.48-25.65 637.6-25.08 639.73-24.5 641.53-23.03 643.33-21.55 644.53-19.07 645.73-16.6 645.73-12.8L645.73-12.8Q645.73-8.85 644.5-6.25 643.28-3.65 641.43-2.13 639.58-0.6 637.43 0.03 635.28 0.65 633.43 0.65L633.43 0.65Q631.53 0.65 629.43 0.05 627.33-0.55 625.55-2.02 623.78-3.5 622.6-6.05 621.43-8.6 621.43-12.5ZM628.28-32.3L636.88-38.55 639.48-35.5 629.98-30.05 628.28-32.3ZM651.57 0L651.57-20.15Q651.62-21.2 651.32-24.7L651.32-24.7 655.02-25.2 655.57-22Q657.07-23 658.55-23.75 660.02-24.5 661.57-25.08 663.12-25.65 664.57-25.65L664.57-25.65Q666.62-25.65 668-25.18 669.37-24.7 670.22-23.6 671.07-22.5 671.45-20.7 671.82-18.9 671.82-16.2L671.82-16.2 671.82 0 667.82 0 667.82-15.75Q667.82-17.25 667.77-18.43 667.72-19.6 667.35-20.43 666.97-21.25 666.2-21.7 665.42-22.15 664.02-22.15L664.02-22.15Q662.72-22.15 661.27-21.58 659.82-21 658.42-20.25 657.02-19.5 655.57-18.5L655.57-18.5 655.57 0 651.57 0ZM710.02-24.55L710.02 2.4Q710.02 4.25 709.62 6 709.22 7.75 708.09 9.13 706.97 10.5 704.94 11.33 702.92 12.15 699.62 12.15L699.62 12.15Q697.52 12.1 695.97 11.9 694.42 11.7 693.02 11.33 691.62 10.95 690.47 10.45L690.47 10.45 691.52 6.95Q693.47 7.8 695.49 8.25 697.52 8.7 699.12 8.7L699.12 8.7Q700.87 8.7 702.17 8.35 703.47 8 704.34 7.18 705.22 6.35 705.64 5 706.07 3.65 706.07 1.65L706.07 1.65 706.07-2Q705.02-1.3 703.89-0.73 702.77-0.15 701.49 0.25 700.22 0.65 699.02 0.65L699.02 0.65Q694.37 0.65 691.67-2.63 688.97-5.9 688.97-12.4L688.97-12.4Q688.97-16.15 690.14-18.68 691.32-21.2 693.12-22.75 694.92-24.3 697.07-24.98 699.22-25.65 701.17-25.65L701.17-25.65Q703.72-25.65 705.84-25.23 707.97-24.8 710.02-24.55L710.02-24.55ZM699.47-2.85L699.47-2.85Q700.57-2.85 701.72-3.25 702.87-3.65 703.94-4.2 705.02-4.75 706.07-5.5L706.07-5.5 706.07-21.45Q705.47-21.6 704.67-21.8L704.67-21.8Q703.97-21.9 703.07-22.03 702.17-22.15 701.17-22.15L701.17-22.15Q699.07-22.15 697.57-21.4 696.07-20.65 695.09-19.35 694.12-18.05 693.67-16.3 693.22-14.55 693.22-12.6L693.22-12.6Q693.22-10.85 693.59-9.1 693.97-7.35 694.77-5.95 695.57-4.55 696.72-3.7 697.87-2.85 699.47-2.85ZM717.22 0L717.22-37.45 721.22-37.9 721.22 0 717.22 0ZM731.26-12.45L731.26-12.45Q731.26-7.6 733.44-5.23 735.61-2.85 739.31-2.85L739.31-2.85Q742.96-2.85 745.01-5.2 747.06-7.55 747.06-12.25L747.06-12.25Q747.06-17.25 744.89-19.7 742.71-22.15 738.96-22.15L738.96-22.15Q735.21-22.15 733.24-19.73 731.26-17.3 731.26-12.45ZM727.01-12.5L727.01-12.5Q727.01-16.3 728.21-18.82 729.41-21.35 731.26-22.88 733.11-24.4 735.24-25.03 737.36-25.65 739.26-25.65L739.26-25.65Q741.06-25.65 743.19-25.08 745.31-24.5 747.11-23.03 748.91-21.55 750.11-19.07 751.31-16.6 751.31-12.8L751.31-12.8Q751.31-8.85 750.09-6.25 748.86-3.65 747.01-2.13 745.16-0.6 743.01 0.03 740.86 0.65 739.01 0.65L739.01 0.65Q737.11 0.65 735.01 0.05 732.91-0.55 731.14-2.02 729.36-3.5 728.19-6.05 727.01-8.6 727.01-12.5ZM757.06-1.5L757.06-37.45 761.06-37.9 761.06-23Q762.16-23.75 763.36-24.3L763.36-24.3Q764.36-24.8 765.61-25.23 766.86-25.65 768.11-25.65L768.11-25.65Q770.16-25.65 771.99-24.85 773.81-24.05 775.19-22.45 776.56-20.85 777.36-18.4 778.16-15.95 778.16-12.6L778.16-12.6Q778.16-8.9 777.14-6.38 776.11-3.85 774.39-2.3 772.66-0.75 770.46-0.05 768.26 0.65 765.96 0.65L765.96 0.65Q763.66 0.65 761.99 0.33 760.31 0 759.21-0.4L759.21-0.4Q757.91-0.9 757.06-1.5L757.06-1.5ZM761.06-19.4L761.06-3.7Q761.71-3.45 762.46-3.28 763.21-3.1 764.09-2.98 764.96-2.85 765.96-2.85L765.96-2.85Q768.26-2.85 769.81-3.5 771.36-4.15 772.26-5.4 773.16-6.65 773.54-8.43 773.91-10.2 773.91-12.4L773.91-12.4Q773.91-14.15 773.54-15.9 773.16-17.65 772.36-19.03 771.56-20.4 770.39-21.28 769.21-22.15 767.66-22.15L767.66-22.15Q766.61-22.15 765.46-21.73 764.31-21.3 763.31-20.75L763.31-20.75Q762.16-20.15 761.06-19.4L761.06-19.4ZM798.01-5.85L798.01-11.55Q797.01-11.5 796.11-11.45 795.21-11.4 794.33-11.33 793.46-11.25 792.76-11.15L792.76-11.15Q789.16-10.7 787.66-9.58 786.16-8.45 786.16-6.35L786.16-6.35Q786.16-4.6 787.23-3.73 788.31-2.85 790.06-2.85L790.06-2.85Q792.46-2.85 794.33-3.68 796.21-4.5 798.01-5.85L798.01-5.85ZM798.46 0.4L797.96-2.35Q795.61-1 793.58-0.18 791.56 0.65 789.21 0.65L789.21 0.65Q785.86 0.65 783.88-0.98 781.91-2.6 781.91-6.35L781.91-6.35Q781.91-8.3 782.91-9.75 783.91-11.2 785.53-12.18 787.16-13.15 789.21-13.7 791.26-14.25 793.41-14.4L793.41-14.4Q794.31-14.5 795.76-14.58 797.21-14.65 798.01-14.7L798.01-14.7Q798.01-16.45 797.91-17.82 797.81-19.2 797.31-20.18 796.81-21.15 795.83-21.65 794.86-22.15 793.06-22.15L793.06-22.15Q791.61-22.15 790.26-21.98 788.91-21.8 787.86-21.6L787.86-21.6Q786.61-21.35 785.56-21.05L785.56-21.05 784.76-24.5Q786.01-24.8 787.46-25.05L787.46-25.05Q788.71-25.3 790.36-25.48 792.01-25.65 793.91-25.65L793.91-25.65Q796.46-25.65 798.03-24.9 799.61-24.15 800.48-22.88 801.36-21.6 801.68-19.98 802.01-18.35 802.01-16.55L802.01-16.55 802.01-4.55Q802.01-3.85 802.03-3.08 802.06-2.3 802.13-1.55 802.21-0.8 802.31 0L802.31 0 798.46 0.4ZM809.06 0L809.06-37.45 813.06-37.9 813.06 0 809.06 0ZM819.2-2.95L819.2-2.95Q819.2-4.15 820.05-5.03 820.9-5.9 822.15-5.9L822.15-5.9Q823.45-5.9 824.35-5.03 825.25-4.15 825.25-2.95L825.25-2.95Q825.25-1.7 824.35-0.85 823.45 0 822.15 0L822.15 0Q820.9 0 820.05-0.85 819.2-1.7 819.2-2.95Z" opacity="1" transform="matrix(1,0,0,1,0,0)" fill="#000000" class="slogan-text-1" data-fill-palette-color="quaternary" id="text-1"></path></svg></g></svg></g></svg></g></svg></g></svg></g></svg></g><g><path d="M245.816 0c68.262 0 123.6 55.338 123.6 123.6 0 68.262-55.338 123.6-123.6 123.6-53.203 0-98.555-33.615-115.976-80.764l1.478 0c17.355 46.369 62.072 79.379 114.498 79.379 67.498 0 122.215-54.718 122.215-122.215 0-67.498-54.718-122.215-122.215-122.215-52.426 0-97.143 33.01-114.498 79.379h-1.478c17.421-47.149 62.773-80.764 115.976-80.764z" fill="#ffffff" stroke="transparent" data-fill-palette-color="tertiary"></path></g></svg></g><defs></defs></svg><rect width="395.52" height="247.2" fill="none" stroke="none" visibility="hidden"></rect></g></svg></g></svg>